<?xml version="1.0" encoding="UTF-8"?>
<svg width="100%" height="100%" viewBox="50 0 500 400" id="lobster" xmlns="http://www.w3.org/2000/svg" version="1.1" xmlns:xlink="http://www.w3.org/1999/xlink">
	  
	<!-- viewBox intentioanlly smaller so only the eyes show at animation end -->
   <!-- Top Claw -->
  <path d="M50,150 h 50 v 50 h 60 v -20 h 70 v -20 h 80 v -20 h 90 v -20 h 70 v -50 h 50 v -30 h 80 " class="path" fill="none" stroke="grey" stroke-width="1" stroke-miterlimit="10" id="lb-top-claw"/>	  

  <!-- Top Claw Thumb -->  
  <path d="M50,150 h 50 v 50 h 60 v -20 h 70 v -20 h 80 v -20 h 90 v -20 h 70 v -50 h 50 v 30 h 40 " class="path" fill="none" stroke="grey" stroke-width="1" stroke-miterlimit="10" id="lb-top-claw-th"/>	
  
  <!-- Top Head -->
  <path d="M50,150 h 50 v 50 h 60 v -20 h 70 v -20 h 80 v -20 h 90 v 20 h 35 v 15 h 50 v -30 h 40 " class="path" fill="none" stroke="grey" stroke-width="1" stroke-miterlimit="10" id="lb-top-head"/>	 
  
  <!-- Bottom Claw -->  
  <path d="M50,250 h 50 v -50 h 60 v 20 h 70 v 20 h 80 v 20 h 90 v 20 h 70 v 50 h 50 v 30 h 80 " class="path" fill="none" stroke="grey" stroke-width="1" stroke-miterlimit="10" id="lb-bottom-claw"/>
  
  <!-- Bottom Claw Thumb-->  
  <path d="M50,250 h 50 v -50 h 60 v 20 h 70 v 20 h 80 v 20 h 90 v 20 h 70 v 50 h 50 v -30 h 40 " class="path" fill="none" stroke="grey" stroke-width="1" stroke-miterlimit="10" id="lb-bottom-claw-th"/>  
    
  <!-- Bottom Head -->
  <path d="M50,250 h 50 v -50 h 60 v 20 h 70 v 20 h 80 v 20 h 90 v -20 h 35 v -15 h 50 v 30 h 40 " class="path" fill="none" stroke="grey" stroke-width="1" stroke-miterlimit="10" id="lb-bottom-head"/>	   
	  
	  
	  
  <circle cx="" cy="" r="5" fill="cyan">    
    <animateMotion id="topsm" dur="2s" begin="0; pause.end" fill="freeze" repeatCount="1">
      <mpath xlink:href="#lb-top-claw"/>	  
    </animateMotion>
  </circle>   
  <circle cx="" cy="" r="5" fill="cyan">    
    <animateMotion id="topsm" dur="2s" begin="0; pause.end" fill="freeze" repeatCount="1">
      <mpath xlink:href="#lb-top-claw-th"/>	  
    </animateMotion>
  </circle>     
  <circle cx="" cy="" r="5" fill="cyan">    
    <animateMotion id="topsm" dur="2s" begin="0; pause.end" fill="freeze" repeatCount="1">
      <mpath xlink:href="#lb-top-head"/>	  
    </animateMotion>
  </circle> 
  
  <circle cx="" cy="" r="5" fill="cyan">    
    <animateMotion id="topsm" dur="2s" begin="0; pause.end" fill="freeze" repeatCount="1">
      <mpath xlink:href="#lb-bottom-claw"/>	  
    </animateMotion>
  </circle>   
  <circle cx="" cy="" r="5" fill="cyan">    
    <animateMotion id="topsm" dur="2s" begin="0; pause.end" fill="freeze" repeatCount="1">
      <mpath xlink:href="#lb-bottom-claw-th"/>	  
    </animateMotion>
  </circle>     
  <circle cx="" cy="" r="5" fill="cyan">    
    <animateMotion id="topsm" dur="2s" begin="0; pause.end" fill="freeze" repeatCount="1">
      <mpath xlink:href="#lb-bottom-head"/>	  
    </animateMotion>
  </circle>   
  
</svg>